<svg width="136" height="29" viewBox="0 0 136 29" fill="none" xmlns="http://www.w3.org/2000/svg">
<path d="M15.9597 15.7011C18.6554 16.9582 21.4377 17.5821 23.7892 17.4595C23.8035 17.4586 23.8172 17.4572 23.8312 17.4565L24 0.742018C24.0059 0.151308 23.3464 -0.203813 22.8564 0.126673L8.79675 9.61201C9.93556 11.7822 12.5661 14.1183 15.9597 15.7011Z" fill="url(#paint0_linear_3730_24)"/>
<path d="M23.2015 19.0644C20.749 19.0644 17.9676 18.3917 15.2873 17.1419C11.59 15.4176 8.80919 12.9585 7.47268 10.505L0.323972 15.328C-0.234537 15.7047 -0.0323512 16.5718 0.635448 16.6626L12.6404 18.2952C13.3468 18.3912 13.9947 18.7399 14.464 19.2766L22.4398 28.3964C22.8831 28.9036 23.7184 28.5945 23.7253 27.9211L23.8149 19.0485C23.6127 19.0582 23.4086 19.0644 23.2015 19.0644Z" fill="url(#paint1_linear_3730_24)"/>
<path d="M33.3026 21.222H30.4901L35.6108 6.67659H38.8636L43.9915 21.222H41.179L37.294 9.65955H37.1804L33.3026 21.222ZM33.3949 15.5189H41.0653V17.6354H33.3949V15.5189ZM53.7401 13.1965L51.3963 13.4522C51.33 13.2154 51.214 12.9929 51.0483 12.7845C50.8873 12.5762 50.6695 12.4081 50.3949 12.2803C50.1203 12.1524 49.7841 12.0885 49.3864 12.0885C48.8513 12.0885 48.4015 12.2045 48.0369 12.4365C47.6771 12.6685 47.4995 12.9692 47.5043 13.3385C47.4995 13.6558 47.6155 13.9138 47.8523 14.1127C48.0938 14.3115 48.4915 14.4749 49.0455 14.6027L50.9062 15.0005C51.9384 15.223 52.7055 15.5757 53.2074 16.0587C53.714 16.5416 53.9697 17.1738 53.9744 17.955C53.9697 18.6416 53.7685 19.2476 53.3707 19.7732C52.9777 20.294 52.4309 20.7012 51.7301 20.9948C51.0294 21.2883 50.2244 21.4351 49.3153 21.4351C47.9801 21.4351 46.9053 21.1558 46.0909 20.597C45.2765 20.0336 44.7912 19.25 44.6349 18.2462L47.142 18.0047C47.2557 18.4971 47.4972 18.8688 47.8665 19.1198C48.2358 19.3707 48.7164 19.4962 49.3082 19.4962C49.919 19.4962 50.4091 19.3707 50.7784 19.1198C51.1525 18.8688 51.3395 18.5587 51.3395 18.1894C51.3395 17.8769 51.2188 17.6188 50.9773 17.4152C50.7405 17.2116 50.3712 17.0554 49.8693 16.9465L48.0085 16.5559C46.9621 16.338 46.188 15.9711 45.6861 15.455C45.1842 14.9342 44.9356 14.276 44.9403 13.4806C44.9356 12.8082 45.1179 12.2258 45.4872 11.7334C45.8613 11.2363 46.3797 10.8527 47.0426 10.5828C47.7102 10.3082 48.4796 10.1709 49.3509 10.1709C50.6293 10.1709 51.6354 10.4432 52.3693 10.9877C53.108 11.5322 53.5649 12.2684 53.7401 13.1965ZM61.0419 10.313V12.3016H54.7706V10.313H61.0419ZM56.3189 7.69932H58.8899V17.9408C58.8899 18.2864 58.942 18.5516 59.0462 18.7363C59.1551 18.9162 59.2971 19.0393 59.4723 19.1056C59.6475 19.1719 59.8416 19.205 60.0547 19.205C60.2157 19.205 60.3625 19.1932 60.495 19.1695C60.6323 19.1458 60.7365 19.1245 60.8075 19.1056L61.2408 21.1155C61.1035 21.1629 60.907 21.2149 60.6513 21.2718C60.4003 21.3286 60.0926 21.3617 59.728 21.3712C59.084 21.3901 58.504 21.2931 57.9879 21.08C57.4718 20.8622 57.0623 20.526 56.7592 20.0715C56.4609 19.6169 56.3142 19.0488 56.3189 18.3669V7.69932ZM62.6921 21.222V10.313H65.185V12.1311H65.2987C65.4975 11.5014 65.8384 11.0161 66.3214 10.6752C66.8091 10.3295 67.3654 10.1567 67.9904 10.1567C68.1325 10.1567 68.2911 10.1638 68.4663 10.178C68.6462 10.1875 68.7953 10.2041 68.9137 10.2277V12.5928C68.8048 12.5549 68.632 12.5218 68.3952 12.4934C68.1632 12.4602 67.9383 12.4436 67.7205 12.4436C67.2518 12.4436 66.8304 12.5454 66.4563 12.749C66.087 12.9479 65.7958 13.2249 65.5827 13.58C65.3697 13.9351 65.2631 14.3447 65.2631 14.8087V21.222H62.6921ZM74.4311 21.4351C73.3658 21.4351 72.4425 21.2007 71.6612 20.732C70.88 20.2632 70.2739 19.6075 69.843 18.7647C69.4169 17.9219 69.2038 16.937 69.2038 15.8101C69.2038 14.6832 69.4169 13.696 69.843 12.8485C70.2739 12.0009 70.88 11.3428 71.6612 10.874C72.4425 10.4053 73.3658 10.1709 74.4311 10.1709C75.4964 10.1709 76.4197 10.4053 77.201 10.874C77.9822 11.3428 78.5859 12.0009 79.0121 12.8485C79.4429 13.696 79.6584 14.6832 79.6584 15.8101C79.6584 16.937 79.4429 17.9219 79.0121 18.7647C78.5859 19.6075 77.9822 20.2632 77.201 20.732C76.4197 21.2007 75.4964 21.4351 74.4311 21.4351ZM74.4453 19.3755C75.023 19.3755 75.5059 19.2168 75.8942 18.8996C76.2824 18.5776 76.5713 18.1468 76.7607 17.607C76.9548 17.0672 77.0518 16.4659 77.0518 15.803C77.0518 15.1354 76.9548 14.5317 76.7607 13.9919C76.5713 13.4474 76.2824 13.0142 75.8942 12.6922C75.5059 12.3702 75.023 12.2093 74.4453 12.2093C73.8535 12.2093 73.361 12.3702 72.968 12.6922C72.5798 13.0142 72.2886 13.4474 72.0945 13.9919C71.9051 14.5317 71.8104 15.1354 71.8104 15.803C71.8104 16.4659 71.9051 17.0672 72.0945 17.607C72.2886 18.1468 72.5798 18.5776 72.968 18.8996C73.361 19.2168 73.8535 19.3755 74.4453 19.3755ZM93.4073 6.67659V21.222H91.0636L84.2099 11.3144H84.0891V21.222H81.4542V6.67659H83.8121L90.6587 16.5914H90.7866V6.67659H93.4073ZM98.804 21.4422C98.1127 21.4422 97.4901 21.3191 96.9361 21.0729C96.3868 20.822 95.9512 20.4526 95.6293 19.9649C95.312 19.4773 95.1534 18.8759 95.1534 18.161C95.1534 17.5454 95.267 17.0364 95.4943 16.634C95.7216 16.2315 96.0317 15.9095 96.4247 15.6681C96.8177 15.4266 97.2604 15.2443 97.7528 15.1212C98.25 14.9934 98.7637 14.901 99.294 14.8442C99.9332 14.7779 100.452 14.7187 100.849 14.6666C101.247 14.6098 101.536 14.5246 101.716 14.411C101.901 14.2926 101.993 14.1103 101.993 13.8641V13.8215C101.993 13.2864 101.834 12.8721 101.517 12.5786C101.2 12.285 100.743 12.1382 100.146 12.1382C99.5166 12.1382 99.017 12.2755 98.6477 12.5502C98.2831 12.8248 98.0369 13.1491 97.9091 13.5232L95.5085 13.1823C95.6979 12.5194 96.0104 11.9654 96.446 11.5203C96.8816 11.0705 97.4143 10.7344 98.044 10.5118C98.6738 10.2845 99.3698 10.1709 100.132 10.1709C100.658 10.1709 101.181 10.2325 101.702 10.3556C102.223 10.4787 102.698 10.6823 103.129 10.9664C103.56 11.2457 103.906 11.6269 104.166 12.1098C104.431 12.5928 104.564 13.1965 104.564 13.9209V21.222H102.092V19.7235H102.007C101.851 20.0265 101.631 20.3106 101.347 20.5757C101.067 20.8362 100.714 21.0469 100.288 21.2078C99.867 21.3641 99.3722 21.4422 98.804 21.4422ZM99.4716 19.553C99.9877 19.553 100.435 19.4512 100.814 19.2476C101.193 19.0393 101.484 18.7647 101.688 18.4238C101.896 18.0828 102 17.7112 102 17.3087V16.0232C101.92 16.0895 101.782 16.151 101.588 16.2078C101.399 16.2647 101.186 16.3144 100.949 16.357C100.712 16.3996 100.478 16.4375 100.246 16.4706C100.014 16.5038 99.8125 16.5322 99.642 16.5559C99.2585 16.6079 98.9152 16.6932 98.6122 16.8115C98.3092 16.9299 98.0701 17.0956 97.8949 17.3087C97.7197 17.517 97.6321 17.7869 97.6321 18.1184C97.6321 18.5918 97.8049 18.9493 98.1506 19.1908C98.4962 19.4323 98.9366 19.553 99.4716 19.553ZM113.602 16.634V10.313H116.173V21.222H113.68V19.2831H113.567C113.321 19.8939 112.916 20.3934 112.352 20.7817C111.794 21.17 111.105 21.3641 110.286 21.3641C109.571 21.3641 108.938 21.2055 108.389 20.8882C107.845 20.5663 107.419 20.0999 107.111 19.4891C106.803 18.8736 106.649 18.1302 106.649 17.259V10.313H109.22V16.8613C109.22 17.5525 109.41 18.1018 109.788 18.509C110.167 18.9162 110.664 19.1198 111.28 19.1198C111.659 19.1198 112.026 19.0274 112.381 18.8428C112.736 18.6581 113.027 18.3835 113.254 18.0189C113.486 17.6496 113.602 17.188 113.602 16.634ZM123.765 10.313V12.3016H117.493V10.313H123.765ZM119.042 7.69932H121.613V17.9408C121.613 18.2864 121.665 18.5516 121.769 18.7363C121.878 18.9162 122.02 19.0393 122.195 19.1056C122.37 19.1719 122.564 19.205 122.777 19.205C122.938 19.205 123.085 19.1932 123.218 19.1695C123.355 19.1458 123.459 19.1245 123.53 19.1056L123.963 21.1155C123.826 21.1629 123.63 21.2149 123.374 21.2718C123.123 21.3286 122.815 21.3617 122.451 21.3712C121.807 21.3901 121.227 21.2931 120.711 21.08C120.194 20.8622 119.785 20.526 119.482 20.0715C119.184 19.6169 119.037 19.0488 119.042 18.3669V7.69932ZM128.554 21.4422C127.863 21.4422 127.24 21.3191 126.686 21.0729C126.137 20.822 125.701 20.4526 125.379 19.9649C125.062 19.4773 124.903 18.8759 124.903 18.161C124.903 17.5454 125.017 17.0364 125.244 16.634C125.472 16.2315 125.782 15.9095 126.175 15.6681C126.568 15.4266 127.01 15.2443 127.503 15.1212C128 14.9934 128.514 14.901 129.044 14.8442C129.683 14.7779 130.202 14.7187 130.599 14.6666C130.997 14.6098 131.286 14.5246 131.466 14.411C131.651 14.2926 131.743 14.1103 131.743 13.8641V13.8215C131.743 13.2864 131.584 12.8721 131.267 12.5786C130.95 12.285 130.493 12.1382 129.896 12.1382C129.267 12.1382 128.767 12.2755 128.398 12.5502C128.033 12.8248 127.787 13.1491 127.659 13.5232L125.259 13.1823C125.448 12.5194 125.76 11.9654 126.196 11.5203C126.632 11.0705 127.164 10.7344 127.794 10.5118C128.424 10.2845 129.12 10.1709 129.882 10.1709C130.408 10.1709 130.931 10.2325 131.452 10.3556C131.973 10.4787 132.448 10.6823 132.879 10.9664C133.31 11.2457 133.656 11.6269 133.916 12.1098C134.181 12.5928 134.314 13.1965 134.314 13.9209V21.222H131.842V19.7235H131.757C131.601 20.0265 131.381 20.3106 131.097 20.5757C130.817 20.8362 130.464 21.0469 130.038 21.2078C129.617 21.3641 129.122 21.4422 128.554 21.4422ZM129.222 19.553C129.738 19.553 130.185 19.4512 130.564 19.2476C130.943 19.0393 131.234 18.7647 131.438 18.4238C131.646 18.0828 131.75 17.7112 131.75 17.3087V16.0232C131.67 16.0895 131.532 16.151 131.338 16.2078C131.149 16.2647 130.936 16.3144 130.699 16.357C130.462 16.3996 130.228 16.4375 129.996 16.4706C129.764 16.5038 129.563 16.5322 129.392 16.5559C129.009 16.6079 128.665 16.6932 128.362 16.8115C128.059 16.9299 127.82 17.0956 127.645 17.3087C127.47 17.517 127.382 17.7869 127.382 18.1184C127.382 18.5918 127.555 18.9493 127.901 19.1908C128.246 19.4323 128.687 19.553 129.222 19.553Z" fill="#0F1116"/>
<defs>
<linearGradient id="paint0_linear_3730_24" x1="12.9553" y1="13.9921" x2="23.4646" y2="4.88436" gradientUnits="userSpaceOnUse">
<stop stop-color="#FF8400"/>
<stop offset="1" stop-color="#CF4307"/>
</linearGradient>
<linearGradient id="paint1_linear_3730_24" x1="6.51414" y1="25.0326" x2="28.5883" y2="19.5709" gradientUnits="userSpaceOnUse">
<stop stop-color="#FF8400"/>
<stop offset="1" stop-color="#CF4307"/>
</linearGradient>
</defs>
</svg>
