<svg width="136" height="30" viewBox="0 0 136 30" fill="none" xmlns="http://www.w3.org/2000/svg">
<path d="M15.9597 16.3769C18.6554 17.634 21.4377 18.2579 23.7892 18.1353C23.8035 18.1344 23.8172 18.133 23.8312 18.1322L24 1.4178C24.0059 0.827089 23.3464 0.471968 22.8564 0.802454L8.79675 10.2878C9.93556 12.458 12.5661 14.7941 15.9597 16.3769Z" fill="url(#paint0_linear_3730_18)"/>
<path d="M23.2015 19.7402C20.749 19.7402 17.9676 19.0675 15.2873 17.8177C11.59 16.0934 8.80919 13.6343 7.47268 11.1808L0.323972 16.0038C-0.234537 16.3805 -0.0323512 17.2476 0.635448 17.3384L12.6404 18.971C13.3468 19.067 13.9947 19.4156 14.464 19.9524L22.4398 29.0722C22.8831 29.5794 23.7184 29.2703 23.7253 28.5969L23.8149 19.7243C23.6127 19.734 23.4086 19.7402 23.2015 19.7402Z" fill="url(#paint1_linear_3730_18)"/>
<path d="M33.3026 21.8978H30.4901L35.6108 7.35237H38.8636L43.9915 21.8978H41.179L37.294 10.3353H37.1804L33.3026 21.8978ZM33.3949 16.1947H41.0653V18.3112H33.3949V16.1947ZM53.7401 13.8723L51.3963 14.1279C51.33 13.8912 51.214 13.6687 51.0483 13.4603C50.8873 13.252 50.6695 13.0839 50.3949 12.9561C50.1203 12.8282 49.7841 12.7643 49.3864 12.7643C48.8513 12.7643 48.4015 12.8803 48.0369 13.1123C47.6771 13.3443 47.4995 13.645 47.5043 14.0143C47.4995 14.3315 47.6155 14.5896 47.8523 14.7885C48.0938 14.9873 48.4915 15.1507 49.0455 15.2785L50.9062 15.6762C51.9384 15.8988 52.7055 16.2515 53.2074 16.7345C53.714 17.2174 53.9697 17.8495 53.9744 18.6308C53.9697 19.3173 53.7685 19.9234 53.3707 20.449C52.9777 20.9698 52.4309 21.377 51.7301 21.6706C51.0294 21.9641 50.2244 22.1109 49.3153 22.1109C47.9801 22.1109 46.9053 21.8315 46.0909 21.2728C45.2765 20.7094 44.7912 19.9258 44.6349 18.922L47.142 18.6805C47.2557 19.1729 47.4972 19.5446 47.8665 19.7956C48.2358 20.0465 48.7164 20.172 49.3082 20.172C49.919 20.172 50.4091 20.0465 50.7784 19.7956C51.1525 19.5446 51.3395 19.2345 51.3395 18.8652C51.3395 18.5527 51.2188 18.2946 50.9773 18.091C50.7405 17.8874 50.3712 17.7312 49.8693 17.6223L48.0085 17.2316C46.9621 17.0138 46.188 16.6469 45.6861 16.1308C45.1842 15.6099 44.9356 14.9518 44.9403 14.1563C44.9356 13.484 45.1179 12.9016 45.4872 12.4092C45.8613 11.912 46.3797 11.5285 47.0426 11.2586C47.7102 10.984 48.4796 10.8467 49.3509 10.8467C50.6293 10.8467 51.6354 11.1189 52.3693 11.6635C53.108 12.208 53.5649 12.9442 53.7401 13.8723ZM61.0419 10.9887V12.9774H54.7706V10.9887H61.0419ZM56.3189 8.3751H58.8899V18.6166C58.8899 18.9622 58.942 19.2274 59.0462 19.412C59.1551 19.592 59.2971 19.7151 59.4723 19.7813C59.6475 19.8476 59.8416 19.8808 60.0547 19.8808C60.2157 19.8808 60.3625 19.8689 60.495 19.8453C60.6323 19.8216 60.7365 19.8003 60.8075 19.7813L61.2408 21.7913C61.1035 21.8386 60.907 21.8907 60.6513 21.9475C60.4003 22.0044 60.0926 22.0375 59.728 22.047C59.084 22.0659 58.504 21.9688 57.9879 21.7558C57.4718 21.538 57.0623 21.2018 56.7592 20.7473C56.4609 20.2927 56.3142 19.7245 56.3189 19.0427V8.3751ZM62.6921 21.8978V10.9887H65.185V12.8069H65.2987C65.4975 12.1772 65.8384 11.6919 66.3214 11.351C66.8091 11.0053 67.3654 10.8325 67.9904 10.8325C68.1325 10.8325 68.2911 10.8396 68.4663 10.8538C68.6462 10.8633 68.7953 10.8798 68.9137 10.9035V13.2686C68.8048 13.2307 68.632 13.1975 68.3952 13.1691C68.1632 13.136 67.9383 13.1194 67.7205 13.1194C67.2518 13.1194 66.8304 13.2212 66.4563 13.4248C66.087 13.6237 65.7958 13.9007 65.5827 14.2558C65.3697 14.6109 65.2631 15.0205 65.2631 15.4845V21.8978H62.6921ZM74.4311 22.1109C73.3658 22.1109 72.4425 21.8765 71.6612 21.4078C70.88 20.939 70.2739 20.2832 69.843 19.4404C69.4169 18.5976 69.2038 17.6128 69.2038 16.4859C69.2038 15.359 69.4169 14.3718 69.843 13.5242C70.2739 12.6767 70.88 12.0186 71.6612 11.5498C72.4425 11.0811 73.3658 10.8467 74.4311 10.8467C75.4964 10.8467 76.4197 11.0811 77.201 11.5498C77.9822 12.0186 78.5859 12.6767 79.0121 13.5242C79.4429 14.3718 79.6584 15.359 79.6584 16.4859C79.6584 17.6128 79.4429 18.5976 79.0121 19.4404C78.5859 20.2832 77.9822 20.939 77.201 21.4078C76.4197 21.8765 75.4964 22.1109 74.4311 22.1109ZM74.4453 20.0512C75.023 20.0512 75.5059 19.8926 75.8942 19.5754C76.2824 19.2534 76.5713 18.8225 76.7607 18.2828C76.9548 17.743 77.0518 17.1417 77.0518 16.4788C77.0518 15.8112 76.9548 15.2075 76.7607 14.6677C76.5713 14.1232 76.2824 13.69 75.8942 13.368C75.5059 13.046 75.023 12.885 74.4453 12.885C73.8535 12.885 73.361 13.046 72.968 13.368C72.5798 13.69 72.2886 14.1232 72.0945 14.6677C71.9051 15.2075 71.8104 15.8112 71.8104 16.4788C71.8104 17.1417 71.9051 17.743 72.0945 18.2828C72.2886 18.8225 72.5798 19.2534 72.968 19.5754C73.361 19.8926 73.8535 20.0512 74.4453 20.0512ZM93.4073 7.35237V21.8978H91.0636L84.2099 11.9902H84.0891V21.8978H81.4542V7.35237H83.8121L90.6587 17.2671H90.7866V7.35237H93.4073ZM98.804 22.118C98.1127 22.118 97.4901 21.9949 96.9361 21.7487C96.3868 21.4977 95.9512 21.1284 95.6293 20.6407C95.312 20.153 95.1534 19.5517 95.1534 18.8367C95.1534 18.2212 95.267 17.7122 95.4943 17.3098C95.7216 16.9073 96.0317 16.5853 96.4247 16.3438C96.8177 16.1024 97.2604 15.9201 97.7528 15.797C98.25 15.6691 98.7637 15.5768 99.294 15.52C99.9332 15.4537 100.452 15.3945 100.849 15.3424C101.247 15.2856 101.536 15.2004 101.716 15.0867C101.901 14.9684 101.993 14.7861 101.993 14.5399V14.4973C101.993 13.9622 101.834 13.5479 101.517 13.2544C101.2 12.9608 100.743 12.814 100.146 12.814C99.5166 12.814 99.017 12.9513 98.6477 13.226C98.2831 13.5006 98.0369 13.8249 97.9091 14.199L95.5085 13.8581C95.6979 13.1952 96.0104 12.6412 96.446 12.1961C96.8816 11.7463 97.4143 11.4101 98.044 11.1876C98.6738 10.9603 99.3698 10.8467 100.132 10.8467C100.658 10.8467 101.181 10.9082 101.702 11.0313C102.223 11.1545 102.698 11.3581 103.129 11.6421C103.56 11.9215 103.906 12.3027 104.166 12.7856C104.431 13.2686 104.564 13.8723 104.564 14.5967V21.8978H102.092V20.3992H102.007C101.851 20.7023 101.631 20.9864 101.347 21.2515C101.067 21.5119 100.714 21.7226 100.288 21.8836C99.867 22.0399 99.3722 22.118 98.804 22.118ZM99.4716 20.2288C99.9877 20.2288 100.435 20.127 100.814 19.9234C101.193 19.7151 101.484 19.4404 101.688 19.0995C101.896 18.7586 102 18.3869 102 17.9845V16.699C101.92 16.7653 101.782 16.8268 101.588 16.8836C101.399 16.9404 101.186 16.9902 100.949 17.0328C100.712 17.0754 100.478 17.1133 100.246 17.1464C100.014 17.1796 99.8125 17.208 99.642 17.2316C99.2585 17.2837 98.9152 17.3689 98.6122 17.4873C98.3092 17.6057 98.0701 17.7714 97.8949 17.9845C97.7197 18.1928 97.6321 18.4627 97.6321 18.7941C97.6321 19.2676 97.8049 19.6251 98.1506 19.8666C98.4962 20.1081 98.9366 20.2288 99.4716 20.2288ZM113.602 17.3098V10.9887H116.173V21.8978H113.68V19.9589H113.567C113.321 20.5697 112.916 21.0692 112.352 21.4575C111.794 21.8457 111.105 22.0399 110.286 22.0399C109.571 22.0399 108.938 21.8813 108.389 21.564C107.845 21.2421 107.419 20.7757 107.111 20.1649C106.803 19.5493 106.649 18.806 106.649 17.9348V10.9887H109.22V17.537C109.22 18.2283 109.41 18.7776 109.788 19.1848C110.167 19.592 110.664 19.7956 111.28 19.7956C111.659 19.7956 112.026 19.7032 112.381 19.5186C112.736 19.3339 113.027 19.0593 113.254 18.6947C113.486 18.3254 113.602 17.8637 113.602 17.3098ZM123.765 10.9887V12.9774H117.493V10.9887H123.765ZM119.042 8.3751H121.613V18.6166C121.613 18.9622 121.665 19.2274 121.769 19.412C121.878 19.592 122.02 19.7151 122.195 19.7813C122.37 19.8476 122.564 19.8808 122.777 19.8808C122.938 19.8808 123.085 19.8689 123.218 19.8453C123.355 19.8216 123.459 19.8003 123.53 19.7813L123.963 21.7913C123.826 21.8386 123.63 21.8907 123.374 21.9475C123.123 22.0044 122.815 22.0375 122.451 22.047C121.807 22.0659 121.227 21.9688 120.711 21.7558C120.194 21.538 119.785 21.2018 119.482 20.7473C119.184 20.2927 119.037 19.7245 119.042 19.0427V8.3751ZM128.554 22.118C127.863 22.118 127.24 21.9949 126.686 21.7487C126.137 21.4977 125.701 21.1284 125.379 20.6407C125.062 20.153 124.903 19.5517 124.903 18.8367C124.903 18.2212 125.017 17.7122 125.244 17.3098C125.472 16.9073 125.782 16.5853 126.175 16.3438C126.568 16.1024 127.01 15.9201 127.503 15.797C128 15.6691 128.514 15.5768 129.044 15.52C129.683 15.4537 130.202 15.3945 130.599 15.3424C130.997 15.2856 131.286 15.2004 131.466 15.0867C131.651 14.9684 131.743 14.7861 131.743 14.5399V14.4973C131.743 13.9622 131.584 13.5479 131.267 13.2544C130.95 12.9608 130.493 12.814 129.896 12.814C129.267 12.814 128.767 12.9513 128.398 13.226C128.033 13.5006 127.787 13.8249 127.659 14.199L125.259 13.8581C125.448 13.1952 125.76 12.6412 126.196 12.1961C126.632 11.7463 127.164 11.4101 127.794 11.1876C128.424 10.9603 129.12 10.8467 129.882 10.8467C130.408 10.8467 130.931 10.9082 131.452 11.0313C131.973 11.1545 132.448 11.3581 132.879 11.6421C133.31 11.9215 133.656 12.3027 133.916 12.7856C134.181 13.2686 134.314 13.8723 134.314 14.5967V21.8978H131.842V20.3992H131.757C131.601 20.7023 131.381 20.9864 131.097 21.2515C130.817 21.5119 130.464 21.7226 130.038 21.8836C129.617 22.0399 129.122 22.118 128.554 22.118ZM129.222 20.2288C129.738 20.2288 130.185 20.127 130.564 19.9234C130.943 19.7151 131.234 19.4404 131.438 19.0995C131.646 18.7586 131.75 18.3869 131.75 17.9845V16.699C131.67 16.7653 131.532 16.8268 131.338 16.8836C131.149 16.9404 130.936 16.9902 130.699 17.0328C130.462 17.0754 130.228 17.1133 129.996 17.1464C129.764 17.1796 129.563 17.208 129.392 17.2316C129.009 17.2837 128.665 17.3689 128.362 17.4873C128.059 17.6057 127.82 17.7714 127.645 17.9845C127.47 18.1928 127.382 18.4627 127.382 18.7941C127.382 19.2676 127.555 19.6251 127.901 19.8666C128.246 20.1081 128.687 20.2288 129.222 20.2288Z" fill="white"/>
<defs>
<linearGradient id="paint0_linear_3730_18" x1="12.9553" y1="14.6678" x2="23.4646" y2="5.56014" gradientUnits="userSpaceOnUse">
<stop stop-color="#FF8400"/>
<stop offset="1" stop-color="#CF4307"/>
</linearGradient>
<linearGradient id="paint1_linear_3730_18" x1="6.51414" y1="25.7083" x2="28.5883" y2="20.2467" gradientUnits="userSpaceOnUse">
<stop stop-color="#FF8400"/>
<stop offset="1" stop-color="#CF4307"/>
</linearGradient>
</defs>
</svg>
